<?xml version="1.0" standalone="no"?>
<!DOCTYPE svg PUBLIC "-//W3C//DTD SVG 20010904//EN"
 "http://www.w3.org/TR/2001/REC-SVG-20010904/DTD/svg10.dtd">
<svg version="1.0" xmlns="http://www.w3.org/2000/svg"
 width="500.000000pt" height="500.000000pt" viewBox="0 0 500.000000 500.000000"
 preserveAspectRatio="xMidYMid meet">
<metadata>
Created by potrace 1.14, written by Peter Selinger 2001-2017
</metadata>
<g transform="translate(0.000000,500.000000) scale(0.100000,-0.100000)"
fill="#000000" stroke="none">
<path d="M3980 3668 c-140 -6 -258 -13 -261 -16 -4 -4 -9 -54 -13 -112 -27
-453 -178 -690 -476 -746 -74 -15 -124 -15 -375 -8 -552 17 -702 11 -900 -38
-169 -41 -361 -130 -499 -231 -167 -123 -362 -344 -501 -567 -80 -129 -199
-366 -269 -535 -62 -152 -176 -477 -176 -504 0 -15 58 -16 737 -13 406 1 741
6 745 10 4 4 16 51 27 103 73 356 185 708 296 929 134 269 282 423 465 484
155 51 255 46 600 -31 346 -77 491 -71 640 28 76 52 143 135 209 260 113 214
190 500 265 977 3 22 3 22 -128 20 -72 -1 -246 -5 -386 -10z m450 -67 c0 -30
-11 -51 -26 -51 -15 0 -17 12 -8 48 8 27 34 30 34 3z m-633 -28 c-5 -41 -37
-44 -37 -4 0 25 4 31 20 31 17 0 20 -5 17 -27z m563 10 c0 -40 -31 -225 -56
-330 l-26 -113 -36 0 c-52 0 -465 40 -470 45 -3 2 2 33 11 67 15 59 39 235 46
330 1 11 64 15 304 16 210 2 227 1 227 -15z m-580 -153 c0 -20 -5 -30 -15 -30
-10 0 -15 10 -15 30 0 20 5 30 15 30 10 0 15 -10 15 -30z m626 14 c-3 -9 -6
-22 -6 -30 0 -8 -7 -14 -15 -14 -15 0 -21 40 -8 53 13 14 35 7 29 -9z m-26
-138 c0 -25 -12 -46 -26 -46 -16 0 -16 5 -8 38 7 24 34 31 34 8z m-620 -10 c0
-26 -12 -46 -27 -46 -10 0 -13 6 -9 16 3 9 6 22 6 30 0 8 7 14 15 14 8 0 15
-6 15 -14z m-30 -130 c0 -20 -22 -56 -35 -56 -18 0 -18 1 -5 34 5 14 16 26 25
26 8 0 15 -2 15 -4z m615 -18 c-15 -48 -43 -51 -31 -3 4 14 13 25 22 25 11 0
14 -6 9 -22z m-535 -17 c0 -4 -10 -6 -23 -4 -21 4 -26 -3 -50 -65 -33 -83 -72
-146 -128 -207 -29 -31 -37 -46 -28 -49 78 -26 451 -136 462 -136 31 0 133
179 182 319 13 36 24 61 24 54 2 -23 -58 -175 -95 -241 -49 -87 -96 -152 -109
-148 -5 2 -119 36 -251 76 l-242 73 60 71 c57 67 119 178 133 239 6 22 13 27
36 27 16 0 29 -4 29 -9z m84 -9 c2 -4 -13 -6 -35 -4 -21 2 -39 6 -39 8 0 7 69
4 74 -4z m86 -10 c0 -4 -16 -6 -35 -4 -19 2 -35 6 -35 8 0 2 16 4 35 4 19 0
35 -4 35 -8z m80 -10 c0 -4 -16 -6 -35 -4 -19 2 -35 6 -35 8 0 2 16 4 35 4 19
0 35 -4 35 -8z m84 -10 c2 -4 -13 -6 -35 -4 -21 2 -39 6 -39 8 0 7 69 4 74 -4z
m86 -10 c0 -4 -16 -6 -35 -4 -19 2 -35 6 -35 8 0 2 16 4 35 4 19 0 35 -4 35
-8z m30 -12 c0 -5 -2 -10 -4 -10 -3 0 -8 5 -11 10 -3 6 -1 10 4 10 6 0 11 -4
11 -10z m-590 -51 c0 -23 -22 -49 -41 -49 -19 0 -19 2 -4 30 15 29 45 42 45
19z m636 -5 c-3 -9 -6 -22 -6 -30 0 -8 -9 -14 -19 -14 -18 0 -19 3 -10 30 6
17 18 30 26 30 10 0 13 -6 9 -16z m-732 -146 c-10 -13 -23 -26 -29 -30 -13
-10 -55 -10 -55 -1 0 15 56 52 79 53 24 0 24 0 5 -22z m686 7 c0 -21 -32 -75
-44 -75 -19 0 -19 -1 -1 44 8 20 22 36 30 36 8 0 15 -2 15 -5z m-486 -170
c132 -42 242 -78 245 -81 13 -13 -151 -111 -219 -131 -64 -18 -231 -13 -365
11 -89 16 -575 161 -584 174 -3 5 -35 16 -71 26 -82 21 -107 36 -64 36 42 0
126 -29 142 -49 11 -14 40 -16 205 -16 216 0 272 10 387 69 36 19 70 34 75 35
6 0 118 -33 249 -74z m-344 56 c0 -14 -27 -21 -80 -21 -51 0 -76 15 -38 23 43
8 118 7 118 -2z m-1056 -30 l60 -18 -85 -7 c-83 -7 -179 6 -179 25 0 4 24 10
53 12 28 2 61 4 72 5 11 1 47 -7 79 -17z m232 3 c62 -21 77 -34 38 -34 -35 0
-134 27 -148 41 -16 15 56 10 110 -7z m664 -26 c0 -12 -90 -9 -135 4 l-40 12
35 5 c39 7 140 -9 140 -21z m-280 -2 c32 -11 38 -15 20 -15 -14 0 -36 6 -50
14 -32 18 -26 18 30 1z m-867 -15 c4 -4 -7 -11 -26 -14 -39 -6 -122 14 -110
27 10 10 124 -1 136 -13z m2057 1 c0 -20 -53 -82 -70 -82 -26 0 -25 3 6 50 15
23 35 40 45 40 11 0 19 -3 19 -8z m-1361 -44 c79 -18 139 -34 132 -36 -6 -2
-71 10 -144 28 -126 29 -143 31 -300 28 -92 -2 -167 0 -167 5 0 4 75 7 168 7
152 0 180 -2 311 -32z m-519 16 c-36 -8 -100 -9 -100 -2 0 5 26 7 58 7 31 -1
50 -3 42 -5z m-110 -8 c0 -2 -18 -6 -40 -8 -22 -2 -40 0 -40 4 0 5 18 8 40 8
22 0 40 -2 40 -4z m-292 -21 c19 -18 -64 -30 -103 -15 -28 11 -28 13 -10 21
19 8 103 4 113 -6z m187 5 c-11 -5 -14 -9 -7 -9 6 -1 12 -5 12 -11 0 -5 -6 -8
-12 -6 -7 3 -26 8 -43 12 l-30 7 25 7 c14 5 36 8 50 8 23 1 23 0 5 -8z m105
-32 c38 -7 70 -15 70 -18 0 -6 -131 15 -155 24 -20 8 16 6 85 -6z m-192 -4
c28 -4 52 -10 52 -14 0 -3 -27 -2 -61 3 -57 9 -64 8 -137 -23 -144 -63 -348
-200 -473 -319 -61 -58 -70 -70 -51 -71 12 0 22 -4 22 -8 0 -5 -13 -7 -30 -4
-28 4 -29 5 -14 28 20 30 156 145 255 216 137 98 322 197 369 198 8 0 39 -3
68 -6z m1072 -15 c30 -6 60 -16 65 -21 7 -7 3 -8 -10 -5 -11 3 -45 9 -75 13
-30 5 -59 9 -65 10 -5 1 -14 2 -18 3 -5 0 -5 6 -1 12 3 6 16 8 28 5 12 -3 46
-10 76 -17z m-127 3 c3 -4 -16 -7 -43 -7 -26 0 -46 3 -43 8 6 9 80 9 86 -1z
m-833 -11 c0 -4 -11 -6 -25 -3 -14 2 -25 6 -25 8 0 2 11 4 25 4 14 0 25 -4 25
-9z m250 -3 c38 -7 70 -15 70 -18 0 -6 -131 15 -155 24 -20 8 16 6 85 -6z
m465 5 c-11 -3 -63 -18 -116 -33 -86 -25 -102 -26 -155 -17 -32 6 -52 12 -43
14 9 2 33 0 55 -5 31 -7 58 -3 134 19 52 15 106 27 120 27 20 0 21 -1 5 -5z
m-586 -19 c11 -10 -9 -10 -64 2 l-60 13 60 -6 c33 -2 62 -7 64 -9z m-569 -33
c0 -17 -67 -41 -98 -35 -17 4 -32 10 -32 13 0 4 16 16 37 28 29 17 42 19 65
11 15 -5 28 -13 28 -17z m699 13 c11 -10 -9 -10 -64 2 l-60 13 60 -6 c33 -2
62 -7 64 -9z m121 7 c0 -4 -11 -6 -25 -3 -14 2 -25 6 -25 8 0 2 11 4 25 4 14
0 25 -4 25 -9z m500 -21 c37 -12 47 -18 30 -19 -29 0 -116 21 -126 32 -13 13
40 6 96 -13z m1069 11 c30 -19 -32 -66 -74 -55 -33 8 -31 14 8 42 35 24 45 26
66 13z m-1560 -17 c11 -10 -9 -9 -64 2 l-60 12 60 -5 c33 -3 62 -7 64 -9z
m344 -13 c14 -14 -54 -25 -108 -17 -84 13 -43 38 49 30 27 -2 54 -8 59 -13z
m411 -23 c49 -18 84 -34 78 -36 -15 -5 -213 57 -227 71 -16 16 50 0 149 -35z
m-689 23 c3 -6 -38 -42 -92 -82 -118 -87 -214 -183 -270 -269 l-42 -65 -53 5
-53 5 51 3 c50 3 53 4 88 58 55 82 164 191 265 264 49 36 90 68 90 72 1 4 -9
9 -21 11 -20 4 -20 4 4 6 15 0 29 -3 33 -8z m1085 -99 c55 -20 69 -28 51 -30
-23 -4 -197 52 -214 68 -16 14 87 -10 163 -38z m-2132 23 c3 -3 3 -6 1 -8 -2
-1 -24 -19 -49 -38 -34 -27 -51 -34 -69 -29 -37 9 -34 22 12 58 33 27 47 32
71 28 16 -4 32 -8 34 -11z m1100 -5 c10 -5 5 -13 -18 -27 -27 -17 -38 -19 -66
-10 -41 13 -42 18 -6 39 26 16 58 15 90 -2z m1304 2 c18 -18 -57 -35 -99 -22
-68 21 -70 22 -43 31 31 10 129 4 142 -9z m-1464 -108 c27 -8 27 -12 -1 -47
-21 -27 -23 -27 -60 -15 l-38 14 21 27 c22 27 37 32 78 21z m-1110 -39 c1 -1
-17 -24 -42 -50 -41 -45 -46 -48 -75 -39 l-31 9 41 48 c38 44 44 47 73 41 17
-3 32 -7 34 -9z m991 -96 c17 -6 31 -13 31 -16 0 -3 -9 -21 -21 -39 -17 -29
-25 -33 -47 -28 -51 12 -54 17 -27 57 14 20 27 37 29 37 2 0 17 -5 35 -11z
m-875 -28 c5 -8 -84 -3 -93 5 -2 2 16 4 42 4 25 0 48 -4 51 -9z m116 -9 c0 -4
-17 -6 -37 -4 -65 6 -70 10 -15 11 28 0 52 -3 52 -7z m114 -10 c2 -4 -12 -6
-32 -4 -62 6 -69 10 -20 11 26 0 49 -3 52 -7z m116 -10 c0 -4 -17 -6 -37 -4
-59 5 -63 10 -10 11 26 1 47 -3 47 -7z m-624 -23 c3 -5 -7 -24 -21 -43 -21
-28 -31 -33 -48 -27 -30 11 -31 25 -2 59 24 29 56 34 71 11z m514 -14 c223
-19 413 -35 422 -35 10 0 18 -4 18 -9 0 -6 -27 -71 -60 -146 -33 -75 -77 -186
-98 -246 l-37 -111 -125 6 c-69 3 -296 11 -505 17 -209 6 -381 12 -382 13 -6
5 133 256 196 355 105 165 124 190 146 191 11 0 202 -16 425 -35z m230 27 c0
-4 -17 -6 -37 -4 -65 6 -70 10 -15 11 28 0 52 -3 52 -7z m114 -11 c5 -8 -84
-3 -93 5 -2 2 16 4 42 4 25 0 48 -4 51 -9z m229 -80 c5 -5 -2 -29 -15 -55 -22
-46 -24 -47 -58 -41 -45 9 -46 10 -31 42 28 62 41 75 69 68 15 -3 31 -10 35
-14z m-1208 -92 c3 -4 -10 -33 -30 -63 -34 -54 -42 -58 -78 -39 -8 4 2 26 39
85 18 28 28 35 44 31 11 -3 23 -9 25 -14z m1123 -104 c2 -2 -38 -105 -44 -113
-3 -5 -74 18 -74 23 0 3 11 29 24 59 l25 55 33 -11 c18 -6 34 -12 36 -13z
m-1246 -102 c13 -7 -45 -113 -62 -113 -38 1 -43 16 -20 61 35 69 42 74 82 52z
m1127 -124 c18 -6 30 -16 28 -23 -2 -6 -12 -34 -21 -62 l-17 -52 -34 11 c-19
6 -35 15 -35 20 0 19 34 117 40 117 4 0 21 -5 39 -11z m-1234 -98 c2 -4 -7
-31 -20 -59 -22 -47 -26 -51 -47 -43 -26 10 -26 10 1 73 16 38 23 46 40 41 12
-3 23 -9 26 -12z m125 1 c0 -5 -13 -7 -28 -4 -26 3 -30 -1 -60 -65 -54 -119
-175 -457 -166 -466 3 -3 1 -8 -5 -12 -6 -3 -11 -2 -11 4 0 34 178 510 202
538 12 14 68 18 68 5z m293 -9 c3 -5 -38 -7 -91 -5 -147 4 -160 9 -30 11 64 0
119 -2 121 -6z m290 -10 c3 -5 -38 -7 -91 -5 -147 4 -160 9 -30 11 64 0 119
-2 121 -6z m297 -10 c0 -5 -37 -7 -82 -5 -143 4 -157 9 -35 10 64 1 117 -1
117 -5z m80 -14 c0 -6 -9 -45 -19 -87 -24 -95 -67 -300 -76 -365 -3 -27 -9
-47 -11 -44 -8 7 23 180 62 344 18 80 31 149 28 154 -3 5 0 9 5 9 6 0 11 -5
11 -11z m75 -101 c30 -13 30 -15 9 -90 -17 -59 -24 -64 -70 -52 -19 5 -21 10
-14 37 5 18 14 51 20 75 12 45 16 48 55 30z m-1255 -81 c0 -7 -24 -77 -53
-157 -45 -122 -56 -146 -75 -148 -14 -2 -22 2 -22 11 0 12 36 122 90 275 9 24
18 32 36 32 13 0 24 -6 24 -13z m1218 -162 c6 -5 -19 -114 -26 -119 -4 -2 -21
-1 -38 1 -31 5 -31 5 -23 46 20 95 17 89 52 82 18 -4 34 -9 35 -10z m-363
-152 c-194 -7 -803 -7 -798 0 2 4 201 6 441 5 240 -1 401 -3 357 -5z"/>
<path d="M3890 3583 c-24 -3 -47 -9 -51 -14 -3 -5 -7 -35 -8 -67 -2 -57 -35
-264 -46 -293 -5 -13 3 -17 42 -22 112 -14 434 -40 438 -35 14 14 57 222 81
391 l6 47 -208 -2 c-115 -1 -229 -3 -254 -5z"/>
<path d="M3440 2729 c-98 -50 -202 -70 -360 -70 -71 0 -118 -4 -110 -9 8 -4
107 -35 220 -69 290 -86 489 -111 611 -75 88 25 217 108 187 119 -38 15 -463
145 -468 143 -3 0 -39 -18 -80 -39z"/>
<path d="M1184 1998 c-44 -68 -89 -136 -98 -152 -31 -50 -137 -249 -134 -251
2 -1 223 -9 492 -16 486 -14 489 -14 496 6 4 11 27 72 50 135 24 63 64 161 91
218 32 68 44 104 36 107 -7 2 -181 18 -387 34 -206 17 -395 34 -420 37 l-45 5
-81 -123z"/>
</g>
</svg>
